<svg xmlns="http://www.w3.org/2000/svg" width="154" height="48" fill="none"><path fill="url(#a)" d="M7.532.18 0 16.966h9.153L2.72 30.217l15.517-17.65H9.153L15.429.18H7.532Z"/><path fill="#F1F1F2" fill-rule="evenodd" d="M39.7 12.958a9.354 9.354 0 0 1 3.472 2.449c.938 1.049 1.689 2.215 2.064 3.497.47 1.4.751 2.799.751 4.431 0 1.516-.094 3.031-.469 4.43-.375 1.4-.938 2.682-1.69 3.732-.844 1.049-1.876 1.981-3.19 2.565-1.314.583-3.003.932-4.974.932H22.9v10.494h-7.322v-.008h-.186V27.532h20.05a3 3 0 0 0 3-3v-1.924a3 3 0 0 0-3-3h-8.859l-.023-.004H22.9v-7.462h11.919c1.877 0 3.472.233 4.88.816Zm17.253-.816h-7.417v33.346h28.549v-7.112h-.028v-.355H56.953V12.142Zm53.304 0H81.619v7.46h28.638v-7.46Zm-4.503 12.943H81.619v7.46h24.135v-7.46ZM81.619 38.021h28.638v7.467H81.619V38.02Zm51.736-4.193 11.44-21.686h8.272v33.346h-7.463V26.949l-8.32 14.924h-7.742l-8.32-14.924v18.539h-7.46V12.142h8.269l11.324 21.686Z" clip-rule="evenodd"/><defs><linearGradient id="a" x1="0" x2="18.423" y1="4.448" y2="4.666" gradientUnits="userSpaceOnUse"><stop stop-color="#FF512F"/><stop offset="1" stop-color="#DD2476"/></linearGradient></defs></svg>